<?xml version="1.0" standalone="no"?>
<!DOCTYPE svg PUBLIC "-//W3C//DTD SVG 20010904//EN"
 "http://www.w3.org/TR/2001/REC-SVG-20010904/DTD/svg10.dtd">
<svg version="1.0" xmlns="http://www.w3.org/2000/svg"
 width="1000.000000pt" height="1000.000000pt" viewBox="0 0 1000.000000 1000.000000"
 preserveAspectRatio="xMidYMid meet">
<metadata>
Created by potrace 1.14, written by Peter Selinger 2001-2017
</metadata>
<g transform="translate(0.000000,1000.000000) scale(0.100000,-0.100000)"
fill="#000000" stroke="none">
<path d="M0 5000 l0 -5000 5000 0 5000 0 0 5000 0 5000 -5000 0 -5000 0 0
-5000z m1233 4403 c41 -20 63 -78 97 -250 32 -161 52 -229 95 -313 90 -179
230 -322 440 -451 39 -23 295 -157 570 -297 1029 -524 1292 -686 1619 -1003
275 -266 437 -515 551 -848 64 -189 83 -292 95 -531 13 -259 18 -310 33 -310
7 0 44 9 82 20 39 11 124 30 190 41 66 12 122 23 124 25 1 1 -20 56 -48 121
-87 203 -108 332 -118 698 -8 350 11 496 107 785 62 190 197 468 305 630 287
431 654 731 1058 865 146 49 285 60 583 48 202 -9 224 -12 257 -32 42 -26 78
-95 98 -186 20 -93 15 -376 -12 -660 -31 -327 -33 -778 -5 -950 33 -204 81
-364 158 -522 75 -156 140 -248 252 -358 85 -85 116 -108 196 -148 143 -71
225 -90 400 -90 125 0 158 4 244 27 75 20 122 26 197 26 172 0 196 -26 186
-195 -6 -103 -24 -155 -70 -204 -99 -104 -367 -233 -574 -276 -64 -14 -110
-16 -263 -10 -524 19 -678 49 -951 186 -175 87 -227 125 -369 268 -210 212
-280 321 -371 578 -33 93 -62 175 -65 183 -4 10 -49 -30 -149 -133 -212 -218
-266 -296 -318 -462 -49 -158 -44 -229 18 -284 20 -17 44 -31 53 -31 10 0 47
30 82 66 36 36 77 72 92 80 36 19 137 18 165 -1 28 -20 42 -70 36 -128 l-5
-45 51 -7 c62 -8 81 -31 81 -93 0 -56 -21 -95 -65 -122 l-36 -22 26 -32 c165
-202 264 -381 310 -564 18 -69 35 -293 35 -456 l0 -119 53 -61 c82 -94 131
-163 180 -256 107 -199 144 -353 133 -555 -13 -275 -86 -442 -286 -660 -50
-55 -135 -165 -188 -245 -209 -316 -264 -380 -623 -735 -184 -181 -377 -364
-429 -406 -111 -89 -309 -223 -413 -279 -218 -118 -752 -180 -1022 -120 -233
52 -392 141 -665 375 -74 63 -141 115 -149 115 -32 0 -233 76 -346 130 -146
70 -260 153 -384 279 -147 149 -191 225 -257 446 -25 83 -27 103 -26 260 1
207 16 286 76 410 106 220 284 413 524 573 112 73 114 76 107 106 -3 17 -10
112 -15 211 -11 236 2 440 34 570 45 181 144 452 218 600 l30 59 -30 56 c-34
61 -59 172 -48 214 l7 28 94 -7 95 -7 0 100 c0 127 7 137 92 128 33 -3 68 -10
78 -16 30 -16 64 -91 84 -182 l6 -28 144 0 144 0 5 28 c23 113 -154 412 -351
593 -72 66 -234 176 -413 279 -246 142 -559 359 -754 521 -636 531 -1267 1424
-1465 2074 -40 131 -45 176 -44 395 2 290 25 401 98 469 52 48 170 60 239 24z"/>
<path d="M1066 9390 c-43 -13 -84 -57 -106 -116 -47 -126 -53 -538 -11 -696
141 -523 633 -1297 1163 -1829 316 -318 594 -527 1104 -832 233 -140 363 -235
443 -324 174 -194 291 -404 291 -524 0 -75 -8 -79 -171 -79 -146 0 -179 7
-179 40 0 35 -49 155 -71 173 -14 11 -39 17 -75 17 l-54 0 0 -116 0 -116 -102
7 -101 7 6 -63 c5 -44 18 -86 43 -135 l36 -70 -31 -62 c-74 -147 -175 -420
-221 -596 -31 -124 -43 -288 -37 -506 3 -107 11 -224 17 -260 6 -35 7 -66 3
-67 -5 -2 -56 -34 -113 -72 -234 -153 -426 -363 -526 -574 -57 -122 -67 -179
-68 -387 0 -174 1 -190 27 -274 16 -50 41 -122 58 -161 54 -131 232 -323 407
-441 118 -80 373 -191 502 -218 14 -3 88 -60 165 -127 302 -262 495 -354 797
-381 200 -19 478 12 704 78 103 29 145 50 296 147 216 139 310 220 682 587
384 380 402 401 633 745 56 83 141 193 188 245 144 157 197 249 248 430 28
103 31 391 4 490 -43 158 -147 348 -267 488 l-77 90 -6 229 c-7 270 -17 335
-68 468 -58 150 -140 284 -261 426 -26 31 -48 59 -48 62 0 3 20 17 45 31 54
32 65 51 65 110 0 55 -15 66 -91 66 -49 0 -51 1 -44 23 3 12 9 43 12 69 8 67
-11 94 -73 101 -67 7 -88 -4 -175 -89 -43 -41 -85 -74 -96 -74 -28 0 -84 40
-110 79 -63 94 8 360 146 541 52 69 347 380 361 380 4 0 15 -28 25 -62 29
-106 115 -329 152 -398 53 -97 133 -199 251 -322 132 -137 206 -192 355 -269
288 -148 444 -180 937 -196 223 -7 284 0 417 43 100 32 264 110 339 162 126
85 154 139 154 294 0 109 -10 122 -99 132 -74 8 -120 3 -266 -31 -196 -45
-416 -30 -584 39 -214 89 -397 284 -530 563 -80 167 -124 323 -158 550 -26
180 -23 576 7 890 30 310 33 620 7 714 -23 84 -49 125 -94 146 -30 15 -77 18
-277 23 -366 7 -488 -14 -721 -127 -583 -284 -1065 -941 -1228 -1676 -20 -92
-22 -125 -22 -430 1 -442 21 -566 131 -802 24 -53 44 -99 44 -103 0 -3 -60
-17 -132 -30 -73 -12 -178 -36 -233 -51 -55 -16 -101 -29 -102 -29 -7 0 -15
91 -28 313 -9 142 -22 291 -30 330 -35 166 -128 416 -210 562 -171 306 -466
608 -835 855 -260 173 -451 279 -1125 620 -481 244 -587 301 -705 379 -147 97
-292 258 -370 411 -39 77 -70 179 -100 331 -15 81 -36 161 -45 179 -27 52
-109 74 -189 50z m5496 -1252 c-38 -68 -82 -152 -97 -188 -60 -143 -69 -156
-158 -214 -87 -58 -177 -133 -367 -309 -63 -59 -119 -107 -124 -107 -28 0 277
301 426 419 77 62 85 73 142 203 37 85 110 194 179 265 33 35 62 61 65 58 2
-2 -27 -60 -66 -127z m-4084 -420 c81 -50 119 -172 71 -232 -75 -96 -242 88
-188 208 11 24 41 44 68 45 7 1 29 -9 49 -21z m3878 -75 c-10 -49 -25 -263
-31 -438 -3 -93 -8 -197 -11 -231 l-5 -60 -88 -38 c-273 -115 -448 -292 -560
-566 -48 -119 -78 -237 -92 -360 -19 -176 -19 -177 -41 -75 -16 76 -19 117
-15 260 3 97 12 207 22 255 64 331 192 634 355 841 70 89 310 333 390 396 65
51 84 55 76 16z m-3543 -91 c21 -19 22 -75 1 -96 -37 -38 -104 1 -104 60 0 58
56 77 103 36z m-148 -237 c0 -35 -24 -45 -49 -20 -22 22 -4 58 27 53 17 -2 22
-10 22 -33z m3645 -508 c0 -8 -41 -38 -92 -68 -120 -70 -197 -127 -281 -207
-37 -36 -69 -63 -72 -61 -8 9 136 169 193 215 51 40 221 134 243 134 5 0 9 -6
9 -13z m-3195 -483 c110 -73 301 -194 425 -270 124 -75 259 -163 301 -195 254
-192 390 -430 390 -681 1 -50 -6 -110 -15 -141 -16 -54 -68 -137 -86 -137 -6
0 -10 30 -10 68 -1 101 -27 349 -45 417 -30 113 -62 162 -190 290 -138 139
-245 224 -633 505 -257 185 -425 319 -362 289 14 -7 115 -72 225 -145z m2111
-1165 c180 -33 334 -203 393 -434 17 -66 41 -219 41 -259 0 -28 -20 17 -39 87
-51 187 -139 358 -225 432 -68 61 -171 113 -255 130 -160 34 -377 -33 -575
-177 -80 -58 -83 -51 -6 17 108 96 268 185 366 203 69 14 230 14 300 1z m-39
-288 c63 -28 150 -116 188 -191 65 -128 98 -362 76 -540 -48 -380 -213 -720
-484 -993 -177 -179 -320 -252 -515 -264 l-98 -6 -74 67 c-41 37 -91 75 -110
85 -89 47 -116 121 -130 363 -12 194 1 375 35 493 136 470 456 876 780 988 71
25 91 27 180 24 77 -2 112 -8 152 -26z m-1253 -101 c93 -35 176 -127 214 -237
16 -48 0 -40 -48 22 -153 198 -306 226 -508 92 -64 -44 -157 -133 -215 -207
-22 -29 -27 -32 -27 -15 0 52 183 257 274 308 106 59 215 72 310 37z m-27
-222 c63 -30 123 -94 169 -180 33 -64 36 -76 31 -127 -6 -63 -126 -439 -156
-487 -13 -21 -30 -33 -52 -38 -19 -3 -85 -25 -147 -47 -62 -23 -115 -39 -118
-36 -8 8 74 180 118 248 19 29 74 99 121 153 48 54 87 107 87 116 0 25 -92
108 -146 131 -114 51 -255 -55 -355 -266 -26 -55 -54 -129 -63 -165 -23 -87
-32 -342 -17 -440 12 -79 60 -194 107 -256 58 -76 173 -101 260 -56 46 23 118
99 172 180 19 29 37 51 38 49 2 -2 13 -48 25 -103 12 -54 23 -109 26 -121 7
-30 -9 -35 -182 -62 -159 -25 -264 -50 -364 -86 -88 -32 -111 -31 -143 3 -34
36 -91 141 -120 222 -21 61 -23 79 -22 295 1 261 10 337 60 485 102 307 275
529 462 596 60 21 155 17 209 -8z m2491 -366 c2 -14 -2 -22 -11 -22 -19 0 -40
26 -32 40 11 18 40 6 43 -18z m-160 -57 c61 -71 -20 -195 -129 -195 -61 0
-105 69 -87 137 9 34 63 84 100 94 37 9 91 -8 116 -36z m250 -87 c20 -20 14
-67 -13 -93 -31 -32 -60 -32 -81 0 -13 20 -14 30 -4 59 6 19 16 37 23 40 23 9
63 6 75 -6z m-235 -244 c157 -35 317 -127 393 -225 61 -79 129 -210 148 -284
20 -76 22 -318 2 -391 -37 -140 -156 -294 -296 -383 -73 -47 -97 -71 -70 -71
67 0 -160 -340 -454 -678 -134 -154 -361 -382 -476 -478 -135 -112 -295 -216
-451 -292 -237 -115 -405 -161 -624 -169 -160 -6 -259 8 -371 53 -155 62 -243
127 -484 356 -98 93 -187 176 -200 185 -22 16 -23 15 -17 -8 3 -13 9 -34 12
-46 10 -31 -15 -30 -113 3 -338 113 -589 330 -691 599 -29 77 -35 105 -39 200
-9 229 48 368 241 579 92 101 244 230 317 270 41 23 56 26 74 18 29 -13 128
-157 124 -180 -4 -21 -47 -21 -95 -1 -18 7 -35 10 -39 6 -4 -3 8 -28 25 -55
23 -36 31 -61 31 -93 0 -107 52 -178 169 -231 77 -35 237 -78 291 -78 51 0 64
-18 57 -83 -13 -123 -80 -231 -167 -270 -136 -61 -386 18 -483 151 -68 93 -82
146 -52 186 36 48 5 62 -44 20 -53 -44 -90 -135 -103 -254 -12 -109 -4 -200
18 -207 19 -6 26 25 33 139 4 59 10 111 14 114 18 18 99 -84 207 -261 350
-575 828 -867 1375 -841 198 9 324 39 490 116 390 179 715 517 940 975 180
367 273 738 276 1100 1 66 4 131 8 143 l6 24 27 -25 c92 -85 178 -328 203
-569 4 -37 11 -66 15 -63 16 10 31 102 31 182 -1 223 -142 510 -294 597 -61
35 -171 52 -243 37 -58 -11 -104 -42 -104 -69 0 -13 18 -14 120 -8 l119 7 -14
-49 c-62 -209 -196 -429 -370 -611 -299 -311 -702 -566 -1065 -674 -130 -39
-221 -51 -385 -51 -217 1 -288 25 -416 143 l-64 58 60 38 c236 149 344 241
418 358 l37 57 119 0 c142 0 206 11 289 50 159 74 289 189 494 435 187 225
293 318 456 400 192 97 421 136 585 99z m-2305 -950 c13 -3 22 -12 22 -22 0
-73 -241 -148 -377 -118 -104 23 48 125 214 144 65 7 90 7 141 -4z m-145 -786
c3 -79 11 -156 17 -173 12 -29 12 -30 21 -7 5 12 12 83 15 157 4 74 9 135 11
135 2 0 27 -12 56 -26 86 -44 155 -63 279 -79 160 -20 178 -30 178 -100 0 -57
-22 -83 -104 -120 -137 -63 -481 -164 -560 -165 -83 0 -149 69 -166 174 -12
75 -5 91 55 125 63 36 126 107 157 177 13 29 26 50 29 48 3 -2 9 -68 12 -146z
m1682 -108 c123 -12 205 -30 204 -45 0 -5 -23 -41 -52 -80 -196 -264 -540
-514 -827 -600 -179 -54 -537 -57 -705 -4 -123 38 -364 156 -393 192 -5 7 -6
21 -2 32 13 34 100 124 144 149 22 13 149 63 282 109 l241 86 66 -15 c67 -16
81 -30 53 -53 -59 -50 -184 -321 -147 -321 4 0 40 45 80 100 112 155 206 243
337 316 206 115 444 159 719 134z"/>
<path d="M5190 4693 c0 -10 12 -54 26 -97 16 -52 28 -118 33 -190 9 -125 8
-137 -20 -365 -11 -90 -18 -165 -16 -168 6 -5 63 157 81 230 45 178 17 514
-50 588 -22 24 -54 25 -54 2z"/>
<path d="M5061 4644 c-36 -30 -39 -52 -10 -83 35 -37 89 -7 89 50 0 65 -28 76
-79 33z"/>
<path d="M4603 4295 c-173 -53 -352 -290 -418 -550 -46 -180 -44 -430 4 -523
55 -108 173 -190 257 -178 101 13 222 95 306 205 96 127 211 407 195 473 -17
68 -192 63 -382 -11 -43 -17 -80 -29 -82 -27 -6 6 107 159 150 205 23 24 95
84 160 133 65 49 121 96 124 104 11 30 -94 152 -150 173 -38 15 -112 13 -164
-4z"/>
<path d="M6130 4087 c-31 -15 -49 -61 -34 -85 17 -26 38 -25 72 3 37 31 48 60
32 80 -15 18 -37 19 -70 2z"/>
<path d="M6427 3493 c3 -10 26 -53 50 -97 71 -126 123 -258 123 -316 0 -39 20
-100 32 -100 17 0 2 165 -22 245 -30 96 -85 197 -132 245 -43 43 -61 51 -51
23z"/>
<path d="M4964 2918 c-138 -104 -260 -181 -332 -210 -46 -17 -77 -22 -156 -22
-85 0 -96 -1 -80 -13 77 -56 249 -34 389 51 130 78 315 250 293 271 -3 3 -54
-32 -114 -77z"/>
</g>
</svg>
